<svg width="1141" height="348" viewBox="0 0 1141 348" fill="none" xmlns="http://www.w3.org/2000/svg">
<path d="M351 235.4C330.2 235.4 312.333 228.333 297.4 214.2C282.467 199.933 275 182.4 275 161.6C275 140.667 281.533 123.133 294.6 109C307.667 94.7333 324.4 87.6 344.8 87.6C360.8 87.6 377 90.2667 393.4 95.6L390.8 103.6C374.8 98.8 359.467 96.4 344.8 96.4C327.333 96.4 313.067 102.667 302 115.2C290.933 127.733 285.4 143.067 285.4 161.2C285.4 179.333 291.8 194.8 304.6 207.6C317.533 220.267 333 226.6 351 226.6C366.733 226.6 380.333 224.2 391.8 219.4L394.8 226.2C389.733 229.133 383.067 231.4 374.8 233C366.667 234.6 358.733 235.4 351 235.4ZM418.023 233V103.8C429.49 102.867 439.223 102.4 447.223 102.4C459.49 102.4 469.623 105.6 477.623 112C485.623 118.267 489.623 127.267 489.623 139C489.623 146.867 487.357 154.133 482.823 160.8C478.29 167.467 473.157 172.867 467.423 177C483.29 198.067 493.09 210.667 496.823 214.8C504.423 222.667 512.69 227.133 521.623 228.2L521.423 234.4C513.957 234.267 507.89 233.2 503.223 231.2C498.557 229.067 493.89 225.533 489.223 220.6C484.69 215.667 474.623 202.4 459.023 180.8C448.223 180.8 437.623 180.467 427.223 179.8V233H418.023ZM454.023 173.2C459.223 173.2 464.823 169.733 470.823 162.8C476.823 155.867 479.823 147.8 479.823 138.6C479.823 129.4 476.69 122.4 470.423 117.6C464.157 112.8 456.023 110.4 446.023 110.4C440.69 110.4 434.423 110.667 427.223 111.2V172.2C436.823 172.867 445.757 173.2 454.023 173.2ZM580.22 235C561.687 235 546.154 228.533 533.62 215.6C521.087 202.667 514.82 186.867 514.82 168.2C514.82 149.4 521.087 133.533 533.62 120.6C546.154 107.667 561.687 101.2 580.22 101.2C598.754 101.2 614.287 107.667 626.82 120.6C639.354 133.533 645.62 149.4 645.62 168.2C645.62 186.867 639.354 202.667 626.82 215.6C614.287 228.533 598.754 235 580.22 235ZM580.22 109.4C564.22 109.4 550.887 115.067 540.22 126.4C529.687 137.733 524.42 151.667 524.42 168.2C524.42 184.6 529.687 198.467 540.22 209.8C550.887 221 564.22 226.6 580.22 226.6C596.354 226.6 609.687 221 620.22 209.8C630.754 198.467 636.02 184.6 636.02 168.2C636.02 151.667 630.754 137.733 620.22 126.4C609.687 115.067 596.354 109.4 580.22 109.4ZM673.711 233V102.4H678.111L763.311 200.4C766.378 203.867 769.178 207.333 771.711 210.8C774.378 214.133 775.778 215.867 775.911 216C775.644 212.8 775.511 206.533 775.511 197.2V103.2H784.711V233.8H780.311L693.511 134.2L682.511 120.8C682.778 123.467 682.911 129.733 682.911 139.6V233H673.711ZM878.095 235C859.562 235 844.029 228.533 831.495 215.6C818.962 202.667 812.695 186.867 812.695 168.2C812.695 149.4 818.962 133.533 831.495 120.6C844.029 107.667 859.562 101.2 878.095 101.2C896.629 101.2 912.162 107.667 924.695 120.6C937.229 133.533 943.495 149.4 943.495 168.2C943.495 186.867 937.229 202.667 924.695 215.6C912.162 228.533 896.629 235 878.095 235ZM878.095 109.4C862.095 109.4 848.762 115.067 838.095 126.4C827.562 137.733 822.295 151.667 822.295 168.2C822.295 184.6 827.562 198.467 838.095 209.8C848.762 221 862.095 226.6 878.095 226.6C894.229 226.6 907.562 221 918.095 209.8C928.629 198.467 933.895 184.6 933.895 168.2C933.895 151.667 928.629 137.733 918.095 126.4C907.562 115.067 894.229 109.4 878.095 109.4ZM997.786 108.8C990.586 108.8 984.719 110.533 980.186 114C975.653 117.467 973.386 122.333 973.386 128.6C973.386 135.8 976.386 142.267 982.386 148C986.653 152.133 992.119 156.533 998.786 161.2C1005.59 165.733 1010.25 169 1012.79 171C1015.32 173 1018.39 175.733 1021.99 179.2C1028.52 185.733 1031.79 193.267 1031.79 201.8C1031.79 212.867 1028.05 221.267 1020.59 227C1013.25 232.6 1002.92 235.4 989.586 235.4C976.386 235.4 965.319 231.933 956.386 225L961.186 218C970.253 224.133 979.853 227.2 989.986 227.2C1000.12 227.2 1007.99 225.067 1013.59 220.8C1019.32 216.533 1022.19 210.533 1022.19 202.8C1022.19 196.133 1019.32 190 1013.59 184.4C1009.59 180.4 1004.19 176.067 997.386 171.4C990.719 166.733 986.053 163.4 983.386 161.4C980.719 159.267 977.586 156.467 973.986 153C967.186 146.2 963.786 138.333 963.786 129.4C963.786 120.467 966.919 113.467 973.186 108.4C979.586 103.333 988.386 100.8 999.586 100.8C1010.79 100.8 1020.85 103 1029.79 107.4L1026.39 114.8C1018.12 110.8 1008.59 108.8 997.786 108.8Z" fill="black"/>
<path d="M69.5 88.0003C69.5 88.0003 85.3453 108 107.5 94.4995C129.887 80.8581 156.5 85.5003 156.5 85.5003V114L142.845 144.5L112.845 160L85.3453 144.5L71.5 114L69.5 88.0003Z" fill="#51693E"/>
<path d="M62.8332 76.7254C75.6965 209.974 152.723 124.593 164.731 248.982" stroke="#161616" stroke-width="11" stroke-linecap="round"/>
<path d="M162.363 76.5189C151.03 209.907 73.029 125.415 62.4496 249.934" stroke="#161616" stroke-width="11" stroke-linecap="round"/>
<line x1="67.5" y1="61.5" x2="156.5" y2="61.5" stroke="#161616" stroke-width="11" stroke-linecap="round"/>
<line x1="67.5" y1="265.5" x2="156.5" y2="265.5" stroke="#161616" stroke-width="11" stroke-linecap="round"/>
</svg>
